<svg xmlns="http://www.w3.org/2000/svg" xmlns:xlink="http://www.w3.org/1999/xlink" version="1.1" x="0px" y="0px" viewBox="0 0 100 125" style="enable-background:new 0 0 100 100;" xml:space="preserve"><path d="M91.7,25.9C83.1,11.1,67.1,1.9,50,1.9c0,0,0,0,0,0c-8.4,0-16.7,2.2-24,6.5C14.8,14.7,6.8,25.1,3.5,37.5  C0.2,50,1.9,62.9,8.3,74.1l1-0.6l0,0l-1,0.6c6.4,11.1,16.8,19.1,29.2,22.4c4.1,1.1,8.4,1.7,12.5,1.7c8.3,0,16.6-2.2,24-6.5  c7.3-4.2,13.4-10.3,17.6-17.6C100.2,59.2,100.2,40.8,91.7,25.9z M5.7,38.1c3.2-11.8,10.8-21.7,21.4-27.8c6.7-3.8,14.2-5.9,21.8-6.1  v18.6c0,0.6,0.1,1.1,0.4,1.6c0.4,0.6,0.9,1,1.6,1c0.9,0,2-0.6,2.5-1.2c0,0,0.3-0.3,0.8-0.3c1.1,0,2,1.3,2,2.8c0,1.5-0.9,2.8-2,2.8  c-0.5,0-0.8-0.3-0.8-0.3c-0.6-0.6-1.6-1.3-2.6-1.3c-1.1,0-2,1.1-2,2.5l0,19.1l-16.3,9.4c-0.1,0-0.1,0.1-0.1,0.1c0-0.2,0-0.5,0.1-0.8  c0-0.1,0.4-1.4-0.4-2.6c-1.2-2-4.1-2.5-6.5-1.2c-2.4,1.4-3.4,4.2-2.2,6.2c0.7,1.3,2,1.6,2.1,1.6c0.3,0.1,0.5,0.2,0.7,0.3  c0,0-0.1,0.1-0.1,0.1L9.7,71.9C4.1,61.6,2.6,49.6,5.7,38.1z M50,50L50,50L50,50L50,50z M72.9,89.7c-10.6,6.1-23,7.8-34.8,4.6  C26.7,91.2,17,84,10.9,73.9l16.3-9.4c1.2-0.7,1.8-2,1.2-3c-0.4-0.8-1.5-1.4-2.4-1.6c0,0-0.4-0.1-0.7-0.5c-0.5-0.9,0.1-2.3,1.4-3.1  c1.3-0.7,2.8-0.6,3.4,0.3c0.2,0.4,0.1,0.8,0.1,0.8c-0.2,0.8-0.3,2.1,0.2,2.8c0.3,0.5,0.9,0.9,1.6,0.9c0.5,0,1.1-0.1,1.6-0.4L50,51.3  l16.5,9.5c0.1,0,0.1,0.1,0.1,0.1c-0.2,0.1-0.4,0.3-0.7,0.3c-0.1,0-1.4,0.4-2.1,1.6c-0.5,0.9-0.6,1.9-0.3,3c0.4,1.3,1.3,2.5,2.6,3.2  c1.1,0.6,2.4,0.9,3.6,0.7c1.3-0.2,2.3-0.9,2.9-1.9c0.7-1.3,0.4-2.5,0.4-2.6c-0.1-0.3-0.1-0.5-0.1-0.8c0,0,0.1,0,0.2,0.1l16.1,9.3  C85.1,80.4,79.6,85.9,72.9,89.7z M90.3,71.9l-16.1-9.3c-1.2-0.7-2.6-0.5-3.2,0.5c-0.5,0.8-0.4,2-0.2,2.8c0,0,0.1,0.4-0.1,0.8  c-0.3,0.6-0.9,0.7-1.3,0.8c-0.7,0.1-1.4-0.1-2.1-0.5c-0.8-0.4-1.3-1.1-1.5-1.9c-0.1-0.3-0.1-0.8,0.1-1.2c0.2-0.4,0.7-0.5,0.7-0.5h0  c0.8-0.2,1.9-0.8,2.4-1.6c0.6-1,0-2.3-1.2-3l-16.5-9.5l0-19.1c0-0.1,0-0.1,0-0.2c0.2,0.1,0.4,0.3,0.6,0.4c0.1,0.1,1,1,2.5,1  c2.3,0,4.2-2.3,4.2-5c0-2.8-1.9-5-4.2-5c0,0,0,0,0,0c0,0,0,0,0,0c-1.5,0-2.4,0.9-2.5,1c-0.2,0.2-0.4,0.3-0.6,0.4c0,0,0-0.1,0-0.2  V4.2C67,4.6,81.7,13.3,89.7,27.1C97.7,40.9,97.9,58,90.3,71.9z"/><text x="0" y="115" fill="#000000" font-size="5px" font-weight="bold" font-family="'Helvetica Neue', Helvetica, Arial-Unicode, Arial, Sans-serif">Created by Libby Ventura</text><text x="0" y="120" fill="#000000" font-size="5px" font-weight="bold" font-family="'Helvetica Neue', Helvetica, Arial-Unicode, Arial, Sans-serif">from the Noun Project</text></svg>